<svg width="84" height="77" viewBox="0 0 84 77" fill="none" xmlns="http://www.w3.org/2000/svg">
<path d="M42.1159 70.0846C23.1533 70.0846 7.78113 55.9425 7.78113 38.4975C7.78113 21.0524 23.1533 6.91037 42.1159 6.91037C61.0785 6.91037 76.4507 21.0524 76.4507 38.4975C76.4299 55.9346 61.0699 70.0654 42.1159 70.0846ZM14.6481 39.0408C14.8105 52.943 27.1498 64.1132 42.262 64.0388C57.3742 63.9637 69.5822 52.6722 69.5822 38.7691C69.5822 24.8661 57.3742 13.5745 42.262 13.4994C27.1498 13.4251 14.8105 24.5952 14.6481 38.4975V39.0408ZM35.249 52.7117V24.2833L55.8498 38.4975L35.249 52.7117Z" fill="#F6F6F6"/>
</svg>
